<svg width="64" height="64" viewBox="0 0 64 64" fill="none" xmlns="http://www.w3.org/2000/svg">
<path d="M62.8855 58.5033H45.2752C44.8224 58.5033 44.4142 58.2285 44.2435 57.8052L32.9759 29.835C32.872 29.5936 32.6344 29.4228 32.3524 29.4228C32.0703 29.4228 31.8291 29.5936 31.7252 29.835L19.8823 57.8237C19.7079 58.236 19.3033 58.5033 18.858 58.5033H1.11413C0.316197 58.5033 -0.221945 57.6901 0.0898061 56.9548L15.2432 21.253C15.5549 20.5177 15.0168 19.7045 14.2188 19.7045H8.03205C7.57926 19.7045 7.17102 19.4297 7.0003 19.0063L1.55207 5.52997C1.25516 4.79841 1.79702 4 2.58753 4L34.2377 4.06313C38.2163 4.07427 40.9033 8.13686 39.3519 11.8058L33.128 26.5188L33.1243 26.5262C33.0872 26.5931 33.0612 26.6599 33.039 26.7304C33.039 26.7304 33.0377 26.7329 33.0353 26.7379C32.9981 26.853 32.9796 26.9755 32.9796 27.1018C32.9796 27.774 33.5919 28.3198 34.2637 28.3198H48.6006C50.8682 28.3198 52.9131 29.6976 53.7593 31.8031L63.9172 56.9734C64.2141 57.7049 63.676 58.5033 62.8855 58.5033Z" fill="#3F30F1"/>
</svg>
